HIERARCHY
ROOT hip
{
	OFFSET 0.000000 0.000000 0.000000
	CHANNELS 6 Xposition Yposition Zposition Xrotation Zrotation Yrotation 
	JOINT abdomen
	{
		OFFSET 0.000000 3.422050 0.000000
		CHANNELS 3 Xrotation Zrotation Yrotation 
		JOINT chest
		{
			OFFSET 0.000000 8.486693 -0.684411
			CHANNELS 3 Xrotation Zrotation Yrotation 
			JOINT neck
			{
				OFFSET 0.000000 10.266162 -0.273764
				CHANNELS 3 Xrotation Zrotation Yrotation 
				JOINT head
				{
					OFFSET 0.000000 3.148285 0.000000
					CHANNELS 3 Xrotation Zrotation Yrotation 
					End Site
					{
						OFFSET 0.000000 3.148289 0.000000
					}
				}
			}
			JOINT lCollar
			{
				OFFSET 3.422053 6.707223 -0.821293
				CHANNELS 3 Yrotation Zrotation Xrotation 
				JOINT lShldr
				{
					OFFSET 3.285171 0.000000 0.000000
					CHANNELS 3 Zrotation Yrotation Xrotation 
					JOINT lForeArm
					{
						OFFSET 10.129278 0.000000 0.000000
						CHANNELS 3 Yrotation Zrotation Xrotation 
						JOINT lHand
						{
							OFFSET 8.486692 0.000000 0.000000
							CHANNELS 3 Zrotation Yrotation Xrotation 
							End Site
							{
								OFFSET 4.106464 0.000000 0.000000
							}
						}
					}
				}
			}
			JOINT rCollar
			{
				OFFSET -3.558935 6.707223 -0.821293
				CHANNELS 3 Yrotation Zrotation Xrotation 
				JOINT rShldr
				{
					OFFSET -3.148289 0.000000 0.000000
					CHANNELS 3 Zrotation Yrotation Xrotation 
					JOINT rForeArm
					{
						OFFSET -10.266159 0.000000 0.000000
						CHANNELS 3 Yrotation Zrotation Xrotation 
						JOINT rHand
						{
							OFFSET -8.349810 0.000000 0.000000
							CHANNELS 3 Zrotation Yrotation Xrotation 
							End Site
							{
								OFFSET -4.106464 0.000000 0.000000
							}
						}
					}
				}
			}
		}
	}
	JOINT lThigh
	{
		OFFSET 5.338403 -1.642589 1.368821
		CHANNELS 3 Xrotation Zrotation Yrotation 
		JOINT lShin
		{
			OFFSET -2.053232 -20.121670 0.000000
			CHANNELS 3 Xrotation Zrotation Yrotation 
			JOINT lFoot
			{
				OFFSET 0.000000 -19.300380 -1.231939
				CHANNELS 3 Xrotation Yrotation Zrotation 
				End Site
				{
					OFFSET 0.000000 -2.463878 4.653993
				}
			}
		}
	}
	JOINT rThigh
	{
		OFFSET -5.338403 -1.642589 1.368821
		CHANNELS 3 Xrotation Zrotation Yrotation 
		JOINT rShin
		{
			OFFSET 2.053232 -20.121670 0.000000
			CHANNELS 3 Xrotation Zrotation Yrotation 
			JOINT rFoot
			{
				OFFSET 0.000000 -19.300380 -1.231939
				CHANNELS 3 Xrotation Yrotation Zrotation 
				End Site
				{
					OFFSET 0.000000 -2.463878 4.653993
				}
			}
		}
	}
}
MOTION
Frames: 11
Frame Time: 0.040000
0.000000 43.528500 0.000000 0.000000 0.000000 0.000000 0.000000 0.000000 0.000000 0.000000 0.000000 0.000000 0.000000 0.000000 0.000000 0.000000 0.000000 0.000000 0.000000 0.000000 0.000000 0.000000 0.000000 0.000000 0.000000 0.000000 0.000000 0.000000 0.000000 0.000000 0.000000 0.000000 0.000000 0.000000 0.000000 0.000000 0.000000 0.000000 0.000000 0.000000 0.000000 0.000000 0.000000 0.000000 0.000000 0.000000 0.000000 0.000000 0.000000 0.000000 0.000000 0.000000 0.000000 0.000000 0.000000 0.000000 0.000000 0.000000 0.000000 0.000000 
0.000000 5.185780 0.000000 -90.001877 0.000000 0.000000 32.264214 -0.107390 -0.138454 19.166862 0.224635 -0.605780 8.380652 1.590234 -47.180637 0.691293 -0.108727 8.991062 9.067043 -7.668714 1.029101 -69.314499 28.778275 3.596055 -73.122261 3.051891 33.928482 -1.067422 -7.297972 21.597427 7.567888 2.127971 -8.598089 71.332588 21.632507 32.976719 70.821014 17.181541 -36.373718 -32.008755 -7.961969 4.148559 -40.819786 10.188516 -25.367384 117.454765 -5.613576 -0.330001 -5.708158 3.429813 11.097742 -52.461052 -32.007320 28.284645 100.559204 2.122321 0.280594 59.807594 32.974976 -27.051249 
0.000000 5.185780 0.000000 -90.001884 0.000000 0.000000 32.722221 -0.115092 -0.143279 17.999886 0.204503 -0.615826 7.801748 1.020520 -47.198994 1.481832 -0.081355 8.975480 9.396978 -7.563817 1.557153 -69.314507 28.778275 3.596054 -73.122261 3.051893 33.928486 -1.286472 -7.310153 21.841955 7.586593 2.481674 -7.958038 71.332596 21.632513 32.976719 69.402061 17.350405 -36.445190 -30.646013 -7.927390 4.064045 -40.943958 10.705770 -25.128908 117.454765 -5.613576 -0.330001 -5.833210 3.025714 11.566265 -52.601318 -32.334549 28.075912 100.559212 2.122321 0.280594 60.041454 32.821850 -27.553881 
0.000000 5.185780 0.000000 -90.001862 0.000000 0.000000 33.180302 -0.122757 -0.148167 16.831585 0.184147 -0.625471 7.222781 0.450334 -47.211605 2.272778 -0.053756 8.960269 9.725940 -7.455878 2.084613 -69.314499 28.778275 3.596053 -73.122261 3.051891 33.928482 -1.505595 -7.321408 22.086552 7.601347 2.835721 -7.317626 71.332588 21.632507 32.976719 67.979492 17.521208 -36.512432 -29.281342 -7.890772 3.980265 -41.066189 11.223675 -24.891090 117.454765 -5.613576 -0.330002 -5.954944 2.620476 12.033893 -52.740704 -32.662251 27.867331 100.559204 2.122321 0.280594 60.273346 32.666988 -28.054987 
0.000000 5.185780 0.000000 -90.001877 0.000000 0.000000 33.638454 -0.130384 -0.153116 15.662182 0.163579 -0.634708 6.643692 -0.120209 -47.218452 3.064057 -0.025937 8.945435 10.053887 -7.344920 2.611436 -69.314499 28.778275 3.596055 -73.122261 3.051891 33.928482 -1.724784 -7.331734 22.331209 7.612149 3.190044 -6.676866 71.332588 21.632507 32.976719 66.553696 17.693804 -36.575359 -27.915112 -7.852136 3.897291 -41.186470 11.742203 -24.653902 117.454765 -5.613576 -0.330001 -6.073361 2.214150 12.500647 -52.879192 -32.990429 27.658899 100.559204 2.122321 0.280594 60.503239 32.510395 -28.554537 
0.000000 5.185780 0.000000 -90.001884 0.000000 0.000000 34.096664 -0.137971 -0.158127 14.491930 0.142811 -0.643529 6.064426 -0.690992 -47.219524 3.855594 0.002093 8.930982 10.380768 -7.230954 3.137578 -69.314499 28.778275 3.596055 -73.122261 3.051889 33.928486 -1.944032 -7.341134 22.575928 7.618986 3.544566 -6.035755 71.332588 21.632507 32.976719 65.125122 17.868044 -36.633884 -26.547724 -7.811512 3.815197 -41.304821 12.261305 -24.417334 117.454765 -5.613577 -0.330001 -6.188456 1.806789 12.966537 -53.016804 -33.319069 27.450619 100.559204 2.122321 0.280594 60.731159 32.352127 -29.052542 
0.000000 5.185780 0.000000 -90.001877 0.000000 0.000000 34.554913 -0.145519 -0.163199 13.321071 0.121857 -0.651928 5.484927 -1.261902 -47.214825 4.647312 0.030326 8.916913 10.706545 -7.114005 3.662993 -69.314499 28.778271 3.596056 -73.122261 3.051891 33.928482 -2.163331 -7.349605 22.820696 7.621848 3.899214 -5.394296 71.332588 21.632507 32.976719 63.694130 18.043751 -36.687908 -25.179577 -7.768929 3.734058 -41.421223 12.780957 -24.181356 117.454765 -5.613576 -0.330001 -6.300225 1.398447 13.431585 -53.153496 -33.648144 27.242476 100.559204 2.122321 0.280594 60.957043 32.192169 -29.548946 
0.000000 5.185780 0.000000 -90.001877 0.000000 0.000000 35.013161 -0.153027 -0.168331 12.149853 0.100729 -0.659900 4.905138 -1.832821 -47.204346 5.439137 0.058756 8.903233 11.031171 -6.994090 4.187638 -69.314499 28.778271 3.596054 -73.122261 3.051889 33.928482 -2.382673 -7.357148 23.065502 7.620728 4.253915 -4.752492 71.332588 21.632507 32.976719 62.261192 18.220781 -36.737381 -23.811049 -7.724418 3.653943 -41.535686 13.301111 -23.945955 117.454765 -5.613576 -0.330001 -6.408671 0.989175 13.895810 -53.289280 -33.977646 27.034464 100.559204 2.122320 0.280594 61.180893 32.030556 -30.043755 
0.000000 5.185780 0.000000 -90.001877 0.000000 0.000000 35.471443 -0.160493 -0.173523 10.978513 0.079441 -0.667439 4.325000 -2.403634 -47.188080 6.230994 0.087373 8.889949 11.354599 -6.871226 4.711468 -69.314499 28.778275 3.596055 -73.122261 3.051891 33.928482 -2.602049 -7.363758 23.310337 7.615623 4.608597 -4.110348 71.332588 21.632507 32.976719 60.826714 18.398970 -36.782238 -22.442535 -7.678016 3.574919 -41.648193 13.821730 -23.711094 117.454765 -5.613576 -0.330001 -6.513790 0.579026 14.359226 -53.424156 -34.307564 26.826590 100.559204 2.122321 0.280594 61.402699 31.867310 -30.536949 
0.000000 5.185780 0.000000 -90.001877 0.000000 0.000000 35.929707 -0.167918 -0.178775 9.807299 0.058004 -0.674540 3.744458 -2.974223 -47.166016 7.022808 0.116170 8.877060 11.676791 -6.745438 5.234442 -69.314507 28.778275 3.596054 -73.122261 3.051893 33.928486 -2.821455 -7.369441 23.555204 7.606525 4.963185 -3.467865 71.332596 21.632509 32.976719 59.391098 18.578127 -36.822403 -21.074438 -7.629767 3.497057 -41.758743 14.342779 -23.476755 117.454765 -5.613576 -0.330001 -6.615580 0.168054 14.821854 -53.558109 -34.637878 26.618834 100.559212 2.122321 0.280594 61.622452 31.702459 -31.028519 
0.000000 5.185780 0.000000 -90.001884 0.000000 0.000000 36.387951 -0.175299 -0.184086 8.636456 0.036434 -0.681201 3.163456 -3.544474 -47.138165 7.814503 0.145137 8.864573 11.997705 -6.616748 5.756518 -69.314499 28.778278 3.596055 -73.122261 3.051891 33.928482 -3.040880 -7.374193 23.800083 7.593433 5.317605 -2.825048 71.332588 21.632507 32.976719 57.954811 18.758101 -36.857853 -19.707140 -7.579710 3.420420 -41.867344 14.864222 -23.242924 117.454765 -5.613576 -0.330002 -6.714041 -0.243689 15.283714 -53.691132 -34.968575 26.411198 100.559204 2.122321 0.280594 61.840153 31.536028 -31.518452 
